<svg width="20" height="20" viewBox="0 0 20 20" fill="none" xmlns="http://www.w3.org/2000/svg">
<path d="M10 20C10.5517 20 11.0345 19.5172 11.0345 18.9655V11.0345H18.9655C19.5172 11.0345 20 10.5517 20 10C20 9.44828 19.5172 8.96552 18.9655 8.96552H11.0345V1.03448C11.0345 0.482759 10.5517 0 10 0C9.44828 0 8.96552 0.482759 8.96552 1.03448V8.96552H1.03448C0.482759 8.96552 0 9.44828 0 10C0 10.5517 0.482759 11.0345 1.03448 11.0345H8.96552V18.9655C8.96552 19.5172 9.44828 20 10 20Z" fill="#2A96FA"/>
</svg>
